<?xml version="1.0" encoding="utf-8"?>
<!-- Generator: Adobe Illustrator 27.9.0, SVG Export Plug-In . SVG Version: 6.00 Build 0)  -->
<svg version="1.1" id="Lager_1" xmlns="http://www.w3.org/2000/svg" xmlns:xlink="http://www.w3.org/1999/xlink" x="0px" y="0px"
	 viewBox="0 0 281.9 75.1" style="enable-background:new 0 0 281.9 75.1;" xml:space="preserve">
<style type="text/css">
	.st0{fill:#FFFFFF;}
</style>
<g>
	<g>
		<path class="st0" d="M98.2,28.2c1.1,0.7,1.9,1.7,2.6,3c0.6,1.3,0.9,2.7,0.9,4.3c0,2.4-0.6,4.4-1.9,5.9c-1.3,1.5-3,2.2-5.1,2.2
			h-3.4c-0.1,0-0.2,0.1-0.2,0.2V55c0,0.1,0,0.2-0.1,0.3c-0.1,0.1-0.2,0.1-0.3,0.1h-3.7c-0.1,0-0.2,0-0.3-0.1
			c-0.1-0.1-0.1-0.2-0.1-0.3V27.6c0-0.1,0-0.2,0.1-0.3c0.1-0.1,0.2-0.1,0.3-0.1h7.6C95.9,27.1,97.1,27.5,98.2,28.2z M96.1,38.7
			c0.6-0.8,0.9-1.8,0.9-3.1c0-1.4-0.3-2.4-0.9-3.2c-0.6-0.8-1.4-1.2-2.4-1.2h-2.4c-0.1,0-0.2,0.1-0.2,0.2v8.3c0,0.1,0.1,0.2,0.2,0.2
			h2.4C94.6,39.9,95.5,39.5,96.1,38.7z"/>
		<path class="st0" d="M116.2,55.1l-0.8-4.3c0-0.1-0.1-0.2-0.2-0.2h-5.9c-0.2,0-0.2,0.1-0.2,0.2l-0.8,4.3c0,0.3-0.2,0.4-0.5,0.4
			h-3.7c-0.4,0-0.5-0.2-0.4-0.5l6-27.4c0.1-0.3,0.2-0.4,0.5-0.4h4.3c0.3,0,0.5,0.1,0.5,0.4l6,27.4v0.2c0,0.2-0.1,0.4-0.4,0.4h-3.8
			C116.4,55.5,116.3,55.4,116.2,55.1z M110,46.9h4.5c0.2,0,0.2-0.1,0.2-0.2l-2.4-12.8c0-0.1-0.1-0.1-0.1-0.1c-0.1,0-0.1,0-0.1,0.1
			l-2.3,12.8C109.8,46.9,109.8,46.9,110,46.9z"/>
		<path class="st0" d="M126.7,53.8c-1.4-1.4-2.1-3.1-2.1-5.3v-1.1c0-0.1,0-0.2,0.1-0.3c0.1-0.1,0.2-0.1,0.3-0.1h3.7
			c0.1,0,0.2,0,0.3,0.1c0.1,0.1,0.1,0.2,0.1,0.3v0.8c0,1.1,0.3,1.9,0.8,2.6c0.5,0.6,1.2,1,2,1c0.8,0,1.5-0.3,2.1-0.9
			c0.5-0.6,0.8-1.4,0.8-2.4c0-0.7-0.1-1.3-0.4-1.8c-0.3-0.5-0.7-1-1.3-1.5c-0.5-0.5-1.4-1.1-2.6-2c-1.4-1-2.4-1.8-3.3-2.6
			c-0.8-0.8-1.5-1.7-2.1-2.7c-0.6-1.1-0.8-2.3-0.8-3.7c0-2.2,0.7-4,2-5.4c1.4-1.3,3.1-2,5.4-2c2.2,0,4.1,0.7,5.4,2.1
			c1.4,1.4,2.1,3.2,2.1,5.5v1c0,0.1,0,0.3-0.1,0.3c-0.1,0.1-0.2,0.1-0.3,0.1h-3.6c-0.1,0-0.2,0-0.3-0.1c-0.1-0.1-0.1-0.2-0.1-0.3
			v-1.1c0-1.1-0.3-1.9-0.8-2.5c-0.5-0.6-1.2-1-2.1-1c-0.8,0-1.5,0.3-2,0.9c-0.5,0.6-0.8,1.4-0.8,2.4c0,1,0.3,1.8,0.8,2.5
			c0.6,0.7,1.6,1.6,3.3,2.8c1.6,1.2,2.9,2.2,3.7,3c0.8,0.8,1.5,1.6,1.9,2.5c0.5,0.9,0.7,2,0.7,3.3c0,2.3-0.7,4.1-2.1,5.5
			c-1.4,1.4-3.2,2.1-5.4,2.1C129.9,55.9,128.1,55.2,126.7,53.8z"/>
		<path class="st0" d="M158.7,27.3c0.1,0.1,0.1,0.2,0.1,0.3v3.1c0,0.1,0,0.3-0.1,0.3c-0.1,0.1-0.2,0.1-0.3,0.1h-5.1
			c-0.1,0-0.2,0.1-0.2,0.2V55c0,0.1,0,0.2-0.1,0.3c-0.1,0.1-0.2,0.1-0.3,0.1h-3.7c-0.1,0-0.2,0-0.3-0.1c-0.1-0.1-0.1-0.2-0.1-0.3
			V31.4c0-0.1-0.1-0.2-0.2-0.2h-4.9c-0.1,0-0.2,0-0.3-0.1c-0.1-0.1-0.1-0.2-0.1-0.3v-3.1c0-0.1,0-0.2,0.1-0.3
			c0.1-0.1,0.2-0.1,0.3-0.1h15.1C158.5,27.1,158.6,27.2,158.7,27.3z"/>
		<path class="st0" d="M174.9,55.1l-3.4-11.6c-0.1-0.1-0.1-0.2-0.2-0.2h-2.1c-0.1,0-0.2,0.1-0.2,0.2V55c0,0.1,0,0.2-0.1,0.3
			c-0.1,0.1-0.2,0.1-0.3,0.1h-3.7c-0.1,0-0.2,0-0.3-0.1c-0.1-0.1-0.1-0.2-0.1-0.3V27.6c0-0.1,0-0.2,0.1-0.3c0.1-0.1,0.2-0.1,0.3-0.1
			h7.6c1.4,0,2.7,0.3,3.8,1c1.1,0.7,1.9,1.7,2.6,2.9s0.9,2.7,0.9,4.3c0,1.7-0.3,3.1-1,4.3c-0.6,1.2-1.6,2.1-2.7,2.8
			c-0.1,0-0.1,0.1-0.1,0.2l4,12.2c0,0.1,0,0.1,0,0.2c0,0.2-0.1,0.4-0.4,0.4h-3.9C175.2,55.5,175,55.4,174.9,55.1z M168.9,31.4v8.1
			c0,0.1,0.1,0.2,0.2,0.2h2.5c1,0,1.8-0.4,2.4-1.1c0.6-0.8,0.9-1.8,0.9-3.1c0-1.3-0.3-2.3-0.9-3.1c-0.6-0.8-1.4-1.2-2.4-1.2h-2.5
			C169,31.2,168.9,31.3,168.9,31.4z"/>
		<path class="st0" d="M188.9,55.3c-0.1-0.1-0.1-0.2-0.1-0.3V43.9l0-0.2l-5.6-16c0-0.1,0-0.1,0-0.2c0-0.2,0.1-0.4,0.4-0.4h3.9
			c0.3,0,0.5,0.1,0.6,0.4l3,10.4c0,0.1,0.1,0.1,0.1,0.1c0.1,0,0.1,0,0.1-0.1l3-10.4c0.1-0.3,0.3-0.4,0.6-0.4h3.9
			c0.2,0,0.3,0,0.4,0.1c0.1,0.1,0.1,0.2,0,0.4l-5.6,16l0,0.2V55c0,0.1,0,0.2-0.1,0.3c-0.1,0.1-0.2,0.1-0.3,0.1h-3.7
			C189.1,55.5,189,55.4,188.9,55.3z"/>
		<path class="st0" d="M225.1,27.3c0.1-0.1,0.2-0.1,0.3-0.1h3.7c0.1,0,0.2,0,0.3,0.1c0.1,0.1,0.1,0.2,0.1,0.3V55
			c0,0.1,0,0.2-0.1,0.3c-0.1,0.1-0.2,0.1-0.3,0.1h-3.7c-0.1,0-0.2,0-0.3-0.1c-0.1-0.1-0.1-0.2-0.1-0.3V43.6c0-0.1-0.1-0.2-0.2-0.2
			h-5.1c-0.1,0-0.2,0.1-0.2,0.2V55c0,0.1,0,0.2-0.1,0.3c-0.1,0.1-0.2,0.1-0.3,0.1h-3.7c-0.1,0-0.2,0-0.3-0.1
			c-0.1-0.1-0.1-0.2-0.1-0.3V27.6c0-0.1,0-0.2,0.1-0.3c0.1-0.1,0.2-0.1,0.3-0.1h3.7c0.1,0,0.2,0,0.3,0.1c0.1,0.1,0.1,0.2,0.1,0.3
			v11.4c0,0.1,0.1,0.2,0.2,0.2h5.1c0.1,0,0.2-0.1,0.2-0.2V27.6C224.9,27.5,225,27.4,225.1,27.3z"/>
		<path class="st0" d="M238,53.6c-1.4-1.5-2.1-3.5-2.1-5.9v-20c0-0.1,0-0.2,0.1-0.3c0.1-0.1,0.2-0.1,0.3-0.1h3.7
			c0.1,0,0.2,0,0.3,0.1c0.1,0.1,0.1,0.2,0.1,0.3v20.5c0,1.1,0.3,2,0.8,2.6c0.5,0.7,1.3,1,2.1,1c0.9,0,1.6-0.3,2.1-1
			c0.5-0.7,0.8-1.6,0.8-2.6V27.6c0-0.1,0-0.2,0.1-0.3c0.1-0.1,0.2-0.1,0.3-0.1h3.7c0.1,0,0.2,0,0.3,0.1c0.1,0.1,0.1,0.2,0.1,0.3v20
			c0,2.5-0.7,4.4-2.1,5.9c-1.4,1.5-3.3,2.2-5.6,2.2C241.2,55.9,239.4,55.1,238,53.6z"/>
		<path class="st0" d="M270.4,53.5c-1.4,1.4-3.3,2-5.7,2h-7.1c-0.1,0-0.2,0-0.3-0.1c-0.1-0.1-0.1-0.2-0.1-0.3V27.6
			c0-0.1,0-0.2,0.1-0.3c0.1-0.1,0.2-0.1,0.3-0.1h6.4c2.6,0,4.6,0.6,6,1.9s2.2,3.2,2.2,5.7c0,2.8-1,4.8-3,6c-0.1,0.1-0.2,0.2-0.1,0.2
			c1.1,0.7,1.9,1.6,2.5,2.7c0.6,1.1,0.9,2.5,0.9,4.1C272.5,50.2,271.8,52.1,270.4,53.5z M261.8,31.4v7.5c0,0.1,0.1,0.2,0.2,0.2h2.1
			c1.1,0,2-0.3,2.6-1c0.6-0.7,0.9-1.6,0.9-2.9c0-1.3-0.3-2.3-0.9-3c-0.6-0.7-1.5-1.1-2.6-1.1H262C261.9,31.2,261.8,31.3,261.8,31.4z
			 M266.9,50.3c0.6-0.8,0.9-1.8,0.9-3.2c0-1.4-0.3-2.5-0.9-3.3c-0.6-0.8-1.5-1.2-2.6-1.2H262c-0.1,0-0.2,0.1-0.2,0.2v8.4
			c0,0.1,0.1,0.2,0.2,0.2h2.4C265.4,51.4,266.3,51.1,266.9,50.3z"/>
	</g>
	<g>
		<g>
			<path class="st0" d="M35.8,45.2c0,0,0.1,0.1,0.1,0.1v1.1c0,0,0,0.1-0.1,0.1c0,0-0.1,0.1-0.1,0.1h-1.9c0,0-0.1,0-0.1,0.1v8.6
				c0,0,0,0.1-0.1,0.1c0,0-0.1,0.1-0.1,0.1h-1.4c0,0-0.1,0-0.1-0.1c0,0-0.1-0.1-0.1-0.1v-8.6c0,0,0-0.1-0.1-0.1h-1.8
				c0,0-0.1,0-0.1-0.1c0,0-0.1-0.1-0.1-0.1v-1.1c0,0,0-0.1,0.1-0.1c0,0,0.1-0.1,0.1-0.1h5.5C35.7,45.1,35.7,45.2,35.8,45.2z"/>
			<path class="st0" d="M41.7,45.2c0,0,0.1-0.1,0.1-0.1h1.4c0,0,0.1,0,0.1,0.1c0,0,0.1,0.1,0.1,0.1v10c0,0,0,0.1-0.1,0.1
				c0,0-0.1,0.1-0.1,0.1h-1.4c0,0-0.1,0-0.1-0.1c0,0-0.1-0.1-0.1-0.1v-4.2c0,0,0-0.1-0.1-0.1h-1.9c0,0-0.1,0-0.1,0.1v4.2
				c0,0,0,0.1-0.1,0.1c0,0-0.1,0.1-0.1,0.1h-1.4c0,0-0.1,0-0.1-0.1c0,0-0.1-0.1-0.1-0.1v-10c0,0,0-0.1,0.1-0.1c0,0,0.1-0.1,0.1-0.1
				h1.4c0,0,0.1,0,0.1,0.1c0,0,0.1,0.1,0.1,0.1v4.2c0,0,0,0.1,0.1,0.1h1.9c0,0,0.1,0,0.1-0.1v-4.2C41.7,45.3,41.7,45.2,41.7,45.2z"
				/>
			<path class="st0" d="M50.9,46.6c0,0-0.1,0.1-0.1,0.1h-3.2c0,0-0.1,0-0.1,0.1v2.8c0,0,0,0.1,0.1,0.1h1.9c0,0,0.1,0,0.1,0.1
				c0,0,0.1,0.1,0.1,0.1v1.1c0,0,0,0.1-0.1,0.1c0,0-0.1,0.1-0.1,0.1h-1.9c0,0-0.1,0-0.1,0.1V54c0,0,0,0.1,0.1,0.1h3.2
				c0,0,0.1,0,0.1,0.1c0,0,0.1,0.1,0.1,0.1v1.1c0,0,0,0.1-0.1,0.1c0,0-0.1,0.1-0.1,0.1H46c0,0-0.1,0-0.1-0.1c0,0-0.1-0.1-0.1-0.1
				v-10c0,0,0-0.1,0.1-0.1c0,0,0.1-0.1,0.1-0.1h4.8c0,0,0.1,0,0.1,0.1c0,0,0.1,0.1,0.1,0.1v1.1C51,46.5,51,46.5,50.9,46.6z"/>
		</g>
		<g>
			<path class="st0" d="M27.5,22.3c-0.2,0.6-0.8,1-1.4,0.9c-2.9-0.5-5.9,0.4-8.1,2.3c-2.3,1.9-3.6,4.7-3.5,7.7
				c0,4.7,3.2,8.7,7.8,9.8c0.6,0.1,1,0.7,1,1.3v18.3h35v-18c0-0.7,0.6-1.3,1.3-1.3c4.2,0.1,7.9-2.6,9.7-6.8c1-2.8,0.5-5.9-1.4-8.5
				c-2-2.7-5-4.3-8.2-4.2c-5.5,0-10,4.5-10,10v0.4H50c0,0,1.7,0,1.8,0l0.4,0l0-0.4c0.2-5.1,4-7.4,7.5-7.4c0,0,0,0,0,0
				c3.5,0,7.3,2.3,7.5,7.4c-0.1,3.8-3.6,7-7.5,7c0,0-0.1,0-0.1,0c-2.1,0-3.8,1.7-3.8,3.8v15.5h-30V44.4c0-1.8-1.2-3.3-2.9-3.7
				c-4.8-1.3-6.3-5.4-5.6-8.8c0.7-3.3,3.6-6.7,8.6-6.1c1.9,0.3,3.7-0.9,4.2-2.7c0.9-3.6,3.7-6.4,7.4-7.6c3.7-1.2,7.5-0.5,10.3,1.9
				l0.3,0.2l1.6-2l-0.3-0.2c-3.5-2.9-8.2-3.8-12.7-2.3C32,14.5,28.7,18,27.5,22.3z"/>
			<path class="st0" d="M74.5,32.1c-0.7-6.5-5.6-13.1-14.9-13.4h0c-4.6,0-8.8,2-11.8,5.7c-2.9,3.7-4,8.3-3,12.8l0.1,0.4l2.5-0.6
				l-0.1-0.4c-0.9-3.7,0-7.6,2.5-10.6c2.4-3.1,6-4.8,9.8-4.7c8.2,0.3,12.2,6.1,12.5,11.8c0.3,5.7-2.9,12-11,13.3l-0.3,0V64
				c0,0.7-0.6,1.3-1.3,1.3H21.9c-0.7,0-1.3-0.6-1.3-1.3V45.4l-0.2-0.1c-7.1-2.7-9.2-9.1-8.2-14.4c1-5.2,5.4-10.4,13-10.3l0.3,0
				l0.1-0.2C27.8,14,34.1,9.7,40.7,9.8l0.4,0V7.3l-0.4,0c-7.1-0.1-14,4.3-17,10.8c-7.2,0.5-12.7,5.3-14,12.3
				c-1.4,7,1.9,13.5,8.4,16.6v17c0,2.1,1.7,3.8,3.8,3.8h37.6c2.1,0,3.8-1.7,3.8-3.8V48.5C72.1,46.1,75.3,38.6,74.5,32.1z"/>
		</g>
	</g>
</g>
</svg>
